# xmcd
#
# Track frame offsets: 
#        150
#        13405
#        42266
#        54046
#        67116
#        79514
#        91786
#        104632
#        118100
#        135217
#        146706
#        161063
#        172860
#        185220
#        196543
#        210523
#        222737
#        230857
#
# Disc length: 3246 seconds
#
# Revision: 9
# Processed by: cddbd v1.5.2PL0 Copyright (c) Steve Scherf et al.
# Submitted via: ExactAudioCopy v1.0b3
#
DISCID=030cac12
DTITLE=Stevie Wonder - The Best Of
DYEAR=2000
DGENRE=Blues
TTITLE0=Uptight (Everything's Alright)
TTITLE1=Fingertips (Parts 1 and 2)
TTITLE2=Little Water Boy
TTITLE3=Music Talk
TTITLE4=Work Out Stevie, Work Out
TTITLE5=Monkey Talk
TTITLE6=Frankie and Johnny
TTITLE7=Mary Ann
TTITLE8=Blowin' In The Wind
TTITLE9=Sad Boy
TTITLE10=With A Child's Heart
TTITLE11=I Was Made To Love Her
TTITLE12=Ain't That Love
TTITLE13=My Baby's Gone
TTITLE14=Yester-Me, Yester-You, Yesterday
TTITLE15=Teach Me Tonight
TTITLE16=Ebb Tide
TTITLE17=Beyond The Sea
EXTD=
EXTT0=
EXTT1=
EXTT2=
EXTT3=
EXTT4=
EXTT5=
EXTT6=
EXTT7=
EXTT8=
EXTT9=
EXTT10=
EXTT11=
EXTT12=
EXTT13=
EXTT14=
EXTT15=
EXTT16=
EXTT17=
PLAYORDER=
